<svg xmlns="http://www.w3.org/2000/svg" class="graphdiagram" viewBox="-1818.1061078440111 -808.5340527812988 2836.8248496436995 1458.9822351378552"><g class="layer relationships"><g class="related-pair"><g class="relationship" transform="translate(-362.2617721557617,180.39335250854492) rotate(-96.84572156109901)"><path class="relationship" d="M 96.58387969978972,-18.895446951105875 L 97.79948902199709,-10.98834293156986 A 1125.7631133984873 1125.7631133984873 0 0 1 400.12863113030863,-16.38133572255355 L 398.7293869343624,-4.4631934310673955 L 432.37675863958714,-16.622731963859056 L 402.460704790219,-36.24490620836381 L 401.0614605942728,-24.326763916877653 A 1133.7631133984873 1133.7631133984873 0 0 0 96.58387969978972,-18.895446951105875" fill="rgb(0, 0, 0)" stroke="rgb(51, 51, 51)" stroke-width="0px"/><text class="type" text-anchor="middle" baseline-shift="30%" alignment-baseline="alphabetic" x="-268.86050592754515" y="28.060701455237904" font-size="50px" font-family="&quot;Gill Sans&quot;, &quot;Gill Sans MT&quot;, Calibri, sans-serif" transform="rotate(180)">isPartOfSent</text></g><g class="relationship" transform="translate(-430.6759033203125,-389.4765319824219) rotate(83.154278438901)"><path class="relationship" d="M 140.45389240834896,-24.725509977878147 L 141.61935513424777,-16.81085921902968 A 1017.7417916595106 1017.7417916595106 0 0 1 444.5339216729886,-15.850780220399304 L 442.7105076896775,-3.990124191095285 L 476.7701424122363,-14.941894941337864 L 447.572944978507,-35.61854026923934 L 445.7495309951959,-23.75788423993532 A 1025.7417916595105 1025.7417916595105 0 0 0 140.45389240834896,-24.725509977878147" fill="rgb(0, 0, 0)" stroke="rgb(51, 51, 51)" stroke-width="0px"/><text class="type" text-anchor="middle" baseline-shift="30%" alignment-baseline="alphabetic" x="289.8868704803231" y="-31.66879541982246" font-size="50px" font-family="&quot;Gill Sans&quot;, &quot;Gill Sans MT&quot;, Calibri, sans-serif">SynGoverns</text></g></g><g class="related-pair"><g class="relationship" transform="translate(-362.2617721557617,180.39335250854492) rotate(26.43931400340348)"><path class="relationship" d="M 98.33353310720362 4 L 293.88853876915607 4 L 293.88853876915607 16 L 325.88853876915607 0 L 293.88853876915607 -16 L 293.88853876915607 -4 L 98.33353310720362 -4 Z" fill="rgb(0, 0, 0)" stroke="rgb(51, 51, 51)" stroke-width="0px"/></g></g><g class="related-pair"><g class="relationship" transform="translate(41.478477478027344,381.15716552734375) rotate(-121.49510505171321)"><path class="relationship" d="M 125.01311103066614 4 L 729.2157112923577 4 L 729.2157112923577 16 L 761.2157112923577 0 L 729.2157112923577 -16 L 729.2157112923577 -4 L 125.01311103066614 -4 Z" fill="rgb(0, 0, 0)" stroke="rgb(51, 51, 51)" stroke-width="0px"/><text class="type" text-anchor="middle" baseline-shift="30%" alignment-baseline="alphabetic" transform="rotate(180)" x="-427.11441116151195" y="0" font-size="50px" font-family="&quot;Gill Sans&quot;, &quot;Gill Sans MT&quot;, Calibri, sans-serif">isPartOfSent</text></g></g></g><g class="layer nodes"><circle class="node node-id-0" r="127.55752079887692" fill="rgb(255, 255, 255)" stroke="rgb(0, 0, 0)" stroke-width="8px" cx="-430.6759033203125" cy="-389.4765319824219"/><g class="caption"><text class="caption node" text-anchor="middle" alignment-baseline="central" x="-430.6759033203125" y="-389.4765319824219" fill="rgb(51, 51, 51)" font-size="50px" font-family="&quot;Gill Sans&quot;, &quot;Gill Sans MT&quot;, Calibri, sans-serif">Sentence</text></g><circle class="node node-id-1" r="83.33353310720362" fill="rgb(255, 255, 255)" stroke="rgb(0, 0, 0)" stroke-width="8px" cx="-362.2617721557617" cy="180.39335250854492"/><g class="caption"><text class="caption node" text-anchor="middle" alignment-baseline="central" x="-362.2617721557617" y="180.39335250854492" fill="rgb(51, 51, 51)" font-size="50px" font-family="&quot;Gill Sans&quot;, &quot;Gill Sans MT&quot;, Calibri, sans-serif">Word</text></g><circle class="node node-id-2" r="110.01311103066614" fill="rgb(255, 255, 255)" stroke="rgb(0, 0, 0)" stroke-width="8px" cx="41.478477478027344" cy="381.15716552734375"/><g class="caption"><text class="caption node" text-anchor="middle" alignment-baseline="central" x="41.478477478027344" y="381.15716552734375" fill="rgb(51, 51, 51)" font-size="50px" font-family="&quot;Gill Sans&quot;, &quot;Gill Sans MT&quot;, Calibri, sans-serif">Artificial</text></g></g><g class="layer properties"><g class="speech-bubble node-speech-bubble" transform="translate(-430.6759033203125,-517.0340527812988) "><path class="speech-bubble-outline" transform="scale(1,-1) " d="M 0 0 L -10 20 L -745.88623046875 20 A 10 10 0 0 0 -755.88623046875 30 L -755.88623046875 280 A 10 10 0 0 0 -745.88623046875 290 L 745.88623046875 290 A 10 10 0 0 0 755.88623046875 280 L 755.88623046875 30 A 10 10 0 0 0 745.88623046875 20 L 10 20 Z" fill="rgb(255, 255, 255)" stroke="rgb(0, 0, 0)" stroke-width="3px"/><text class="speech-bubble-content property-key" x="-515.17333984375" y="-255" alignment-baseline="central" text-anchor="end" font-size="50px" font-family="&quot;Gill Sans&quot;, &quot;Gill Sans MT&quot;, Calibri, sans-serif" xml:space="preserve">{id: </text><text class="speech-bubble-content property-key" x="-515.17333984375" y="-205" alignment-baseline="central" text-anchor="end" font-size="50px" font-family="&quot;Gill Sans&quot;, &quot;Gill Sans MT&quot;, Calibri, sans-serif" xml:space="preserve">{text: </text><text class="speech-bubble-content property-key" x="-515.17333984375" y="-155" alignment-baseline="central" text-anchor="end" font-size="50px" font-family="&quot;Gill Sans&quot;, &quot;Gill Sans MT&quot;, Calibri, sans-serif" xml:space="preserve">{Speaker: </text><text class="speech-bubble-content property-key" x="-515.17333984375" y="-105" alignment-baseline="central" text-anchor="end" font-size="50px" font-family="&quot;Gill Sans&quot;, &quot;Gill Sans MT&quot;, Calibri, sans-serif" xml:space="preserve">{Author: </text><text class="speech-bubble-content property-value" x="-515.17333984375" y="-255" alignment-baseline="central" font-size="50px" font-family="&quot;Gill Sans&quot;, &quot;Gill Sans MT&quot;, Calibri, sans-serif">urn:cite2:gagdt:sentence_graphs.v1:soph_aj_1}</text><text class="speech-bubble-content property-value" x="-515.17333984375" y="-205" alignment-baseline="central" font-size="50px" font-family="&quot;Gill Sans&quot;, &quot;Gill Sans MT&quot;, Calibri, sans-serif">urn:cts:greekLit:tlg0011.tlg003.gagdt.tokenized:1.1-1.4.8}</text><text class="speech-bubble-content property-value" x="-515.17333984375" y="-155" alignment-baseline="central" font-size="50px" font-family="&quot;Gill Sans&quot;, &quot;Gill Sans MT&quot;, Calibri, sans-serif">Athena}</text><text class="speech-bubble-content property-value" x="-515.17333984375" y="-105" alignment-baseline="central" font-size="50px" font-family="&quot;Gill Sans&quot;, &quot;Gill Sans MT&quot;, Calibri, sans-serif">Sophocles}</text><text class="speech-bubble-content property-key" x="-515.17333984375" y="-55" alignment-baseline="central" text-anchor="end" font-size="50px" font-family="&quot;Gill Sans&quot;, &quot;Gill Sans MT&quot;, Calibri, sans-serif" xml:space="preserve">{Title: </text><text class="speech-bubble-content property-value" x="-515.17333984375" y="-55" alignment-baseline="central" font-size="50px" font-family="&quot;Gill Sans&quot;, &quot;Gill Sans MT&quot;, Calibri, sans-serif">Ajax}</text></g><g class="speech-bubble node-speech-bubble" transform="translate(-421.1874785160991,239.31905886888228) "><path class="speech-bubble-outline" transform="scale(-1,1) " d="M 0 0 L 30 20 L 257.9052734375 20 A 10 10 0 0 1 267.9052734375 30 L 267.9052734375 280 A 10 10 0 0 1 257.9052734375 290 L 30 290 A 10 10 0 0 1 20 280 L 20 30 Z" fill="rgb(255, 255, 255)" stroke="rgb(0, 0, 0)" stroke-width="3px"/><text class="speech-bubble-content property-key" x="-46.69921875" y="55" alignment-baseline="central" text-anchor="end" font-size="50px" font-family="&quot;Gill Sans&quot;, &quot;Gill Sans MT&quot;, Calibri, sans-serif" xml:space="preserve">{id: </text><text class="speech-bubble-content property-key" x="-46.69921875" y="105" alignment-baseline="central" text-anchor="end" font-size="50px" font-family="&quot;Gill Sans&quot;, &quot;Gill Sans MT&quot;, Calibri, sans-serif" xml:space="preserve">{CtsUrn: </text><text class="speech-bubble-content property-key" x="-46.69921875" y="155" alignment-baseline="central" text-anchor="end" font-size="50px" font-family="&quot;Gill Sans&quot;, &quot;Gill Sans MT&quot;, Calibri, sans-serif" xml:space="preserve">{Form: </text><text class="speech-bubble-content property-key" x="-46.69921875" y="205" alignment-baseline="central" text-anchor="end" font-size="50px" font-family="&quot;Gill Sans&quot;, &quot;Gill Sans MT&quot;, Calibri, sans-serif" xml:space="preserve">{Lemma: </text><text class="speech-bubble-content property-value" x="-46.69921875" y="55" alignment-baseline="central" font-size="50px" font-family="&quot;Gill Sans&quot;, &quot;Gill Sans MT&quot;, Calibri, sans-serif">}</text><text class="speech-bubble-content property-value" x="-46.69921875" y="105" alignment-baseline="central" font-size="50px" font-family="&quot;Gill Sans&quot;, &quot;Gill Sans MT&quot;, Calibri, sans-serif">}</text><text class="speech-bubble-content property-value" x="-46.69921875" y="155" alignment-baseline="central" font-size="50px" font-family="&quot;Gill Sans&quot;, &quot;Gill Sans MT&quot;, Calibri, sans-serif">}</text><text class="speech-bubble-content property-value" x="-46.69921875" y="205" alignment-baseline="central" font-size="50px" font-family="&quot;Gill Sans&quot;, &quot;Gill Sans MT&quot;, Calibri, sans-serif">}</text><text class="speech-bubble-content property-key" x="-46.69921875" y="255" alignment-baseline="central" text-anchor="end" font-size="50px" font-family="&quot;Gill Sans&quot;, &quot;Gill Sans MT&quot;, Calibri, sans-serif" xml:space="preserve">{Postag: </text><text class="speech-bubble-content property-value" x="-46.69921875" y="255" alignment-baseline="central" font-size="50px" font-family="&quot;Gill Sans&quot;, &quot;Gill Sans MT&quot;, Calibri, sans-serif">}</text></g><g class="speech-bubble relationship-speech-bubble" transform="translate(-364.67943909420484,-105.43115358335285) "><path class="speech-bubble-outline" transform="scale(-1,1) " d="M 0 0 L 30 20 L 638.544921875 20 A 10 10 0 0 1 648.544921875 30 L 648.544921875 180 A 10 10 0 0 1 638.544921875 190 L 30 190 A 10 10 0 0 1 20 180 L 20 30 Z" fill="rgb(255, 255, 255)" stroke="rgb(0, 0, 0)" stroke-width="3px"/><text class="speech-bubble-content property-key" x="-185.615234375" y="55" alignment-baseline="central" text-anchor="end" font-size="50px" font-family="&quot;Gill Sans&quot;, &quot;Gill Sans MT&quot;, Calibri, sans-serif" xml:space="preserve">{Relation: </text><text class="speech-bubble-content property-key" x="-185.615234375" y="105" alignment-baseline="central" text-anchor="end" font-size="50px" font-family="&quot;Gill Sans&quot;, &quot;Gill Sans MT&quot;, Calibri, sans-serif" xml:space="preserve">{isMemberOfCoord: </text><text class="speech-bubble-content property-key" x="-185.615234375" y="155" alignment-baseline="central" text-anchor="end" font-size="50px" font-family="&quot;Gill Sans&quot;, &quot;Gill Sans MT&quot;, Calibri, sans-serif" xml:space="preserve">{isMemberOfApos: </text><text class="speech-bubble-content property-value" x="-185.615234375" y="55" alignment-baseline="central" font-size="50px" font-family="&quot;Gill Sans&quot;, &quot;Gill Sans MT&quot;, Calibri, sans-serif">PRED}</text><text class="speech-bubble-content property-value" x="-185.615234375" y="105" alignment-baseline="central" font-size="50px" font-family="&quot;Gill Sans&quot;, &quot;Gill Sans MT&quot;, Calibri, sans-serif">0}</text><text class="speech-bubble-content property-value" x="-185.615234375" y="155" alignment-baseline="central" font-size="50px" font-family="&quot;Gill Sans&quot;, &quot;Gill Sans MT&quot;, Calibri, sans-serif">0}</text></g><g class="speech-bubble node-speech-bubble" transform="translate(119.26949430723995,458.94818235655634) "><path class="speech-bubble-outline" transform="scale(1,1) " d="M 0 0 L 30 20 L 257.9052734375 20 A 10 10 0 0 1 267.9052734375 30 L 267.9052734375 180 A 10 10 0 0 1 257.9052734375 190 L 30 190 A 10 10 0 0 1 20 180 L 20 30 Z" fill="rgb(255, 255, 255)" stroke="rgb(0, 0, 0)" stroke-width="3px"/><text class="speech-bubble-content property-key" x="241.2060546875" y="55" alignment-baseline="central" text-anchor="end" font-size="50px" font-family="&quot;Gill Sans&quot;, &quot;Gill Sans MT&quot;, Calibri, sans-serif" xml:space="preserve">{id: </text><text class="speech-bubble-content property-key" x="241.2060546875" y="105" alignment-baseline="central" text-anchor="end" font-size="50px" font-family="&quot;Gill Sans&quot;, &quot;Gill Sans MT&quot;, Calibri, sans-serif" xml:space="preserve">{Lemma: </text><text class="speech-bubble-content property-key" x="241.2060546875" y="155" alignment-baseline="central" text-anchor="end" font-size="50px" font-family="&quot;Gill Sans&quot;, &quot;Gill Sans MT&quot;, Calibri, sans-serif" xml:space="preserve">{Postag: </text><text class="speech-bubble-content property-value" x="241.2060546875" y="55" alignment-baseline="central" font-size="50px" font-family="&quot;Gill Sans&quot;, &quot;Gill Sans MT&quot;, Calibri, sans-serif">}</text><text class="speech-bubble-content property-value" x="241.2060546875" y="105" alignment-baseline="central" font-size="50px" font-family="&quot;Gill Sans&quot;, &quot;Gill Sans MT&quot;, Calibri, sans-serif">}</text><text class="speech-bubble-content property-value" x="241.2060546875" y="155" alignment-baseline="central" font-size="50px" font-family="&quot;Gill Sans&quot;, &quot;Gill Sans MT&quot;, Calibri, sans-serif">}</text></g></g><g class="layer overlay"><circle class="node overlay" r="131.5575207988769" stroke="none" fill="rgba(255, 255, 255, 0)" cx="-430.6759033203125" cy="-389.4765319824219"/><circle class="node ring" r="136.5575207988769" fill="none" stroke="rgba(255, 255, 255, 0)" stroke-width="10px" cx="-430.6759033203125" cy="-389.4765319824219"/><circle class="node overlay" r="87.33353310720362" stroke="none" fill="rgba(255, 255, 255, 0)" cx="-362.2617721557617" cy="180.39335250854492"/><circle class="node ring" r="92.33353310720362" fill="none" stroke="rgba(255, 255, 255, 0)" stroke-width="10px" cx="-362.2617721557617" cy="180.39335250854492"/><path class="relationship overlay" fill="rgba(255, 255, 255, 0)" stroke="rgba(255, 255, 255, 0)" stroke-width="10px" transform="translate(-362.2617721557617,180.39335250854492) rotate(-96.84572156109901)" d="M 96.58387969978972,-18.895446951105875 L 97.79948902199709,-10.98834293156986 A 1125.7631133984873 1125.7631133984873 0 0 1 400.12863113030863,-16.38133572255355 L 398.7293869343624,-4.4631934310673955 L 432.37675863958714,-16.622731963859056 L 402.460704790219,-36.24490620836381 L 401.0614605942728,-24.326763916877653 A 1133.7631133984873 1133.7631133984873 0 0 0 96.58387969978972,-18.895446951105875"/><path class="relationship overlay" fill="rgba(255, 255, 255, 0)" stroke="rgba(255, 255, 255, 0)" stroke-width="10px" transform="translate(-430.6759033203125,-389.4765319824219) rotate(83.154278438901)" d="M 140.45389240834896,-24.725509977878147 L 141.61935513424777,-16.81085921902968 A 1017.7417916595106 1017.7417916595106 0 0 1 444.5339216729886,-15.850780220399304 L 442.7105076896775,-3.990124191095285 L 476.7701424122363,-14.941894941337864 L 447.572944978507,-35.61854026923934 L 445.7495309951959,-23.75788423993532 A 1025.7417916595105 1025.7417916595105 0 0 0 140.45389240834896,-24.725509977878147"/><circle class="node overlay" r="114.01311103066614" stroke="none" fill="rgba(255, 255, 255, 0)" cx="41.478477478027344" cy="381.15716552734375"/><circle class="node ring" r="119.01311103066614" fill="none" stroke="rgba(255, 255, 255, 0)" stroke-width="10px" cx="41.478477478027344" cy="381.15716552734375"/><path class="relationship overlay" fill="rgba(255, 255, 255, 0)" stroke="rgba(255, 255, 255, 0)" stroke-width="10px" transform="translate(-362.2617721557617,180.39335250854492) rotate(26.43931400340348)" d="M 98.33353310720362 4 L 293.88853876915607 4 L 293.88853876915607 16 L 325.88853876915607 0 L 293.88853876915607 -16 L 293.88853876915607 -4 L 98.33353310720362 -4 Z"/><path class="relationship overlay" fill="rgba(255, 255, 255, 0)" stroke="rgba(255, 255, 255, 0)" stroke-width="10px" transform="translate(41.478477478027344,381.15716552734375) rotate(-121.49510505171321)" d="M 125.01311103066614 4 L 729.2157112923577 4 L 729.2157112923577 16 L 761.2157112923577 0 L 729.2157112923577 -16 L 729.2157112923577 -4 L 125.01311103066614 -4 Z"/></g></svg>